<?xml version="1.0" encoding="utf-8"?>
<!-- Generator: Adobe Illustrator 20.1.0, SVG Export Plug-In . SVG Version: 6.00 Build 0)  -->
<svg version="1.1" id="Layer_1" xmlns="http://www.w3.org/2000/svg" xmlns:xlink="http://www.w3.org/1999/xlink" x="0px" y="0px"
	 viewBox="0 0 250 50" style="enable-background:new 0 0 250 50;" xml:space="preserve">
<style type="text/css">
	.st0{fill:none;}
	.st1{fill:#00509A;}
	.st2{fill:#00B1D6;}
	.st3{fill:#7C7C7C;}
</style>
<g>
	<rect x="27.2" y="1.5" class="st0" width="195.7" height="46.4"/>
	<rect x="27.2" y="1.5" class="st0" width="195.7" height="46.4"/>
	<path class="st1" d="M27.2,42.5V5.8c0-2.3,1.3-4.3,3.8-4.3h7.4h15.3c0.5,0,1,0.3,1,0.9V12H40.4c-0.7,0-1.4,0.3-1.4,1.6
		c0,9.9,0,19.1-0.1,28.9c0,0.7-0.4,0.8-0.9,0.8H28C27.3,43.4,27.2,43,27.2,42.5"/>
	<rect x="27.2" y="1.5" class="st0" width="195.7" height="46.4"/>
	<path class="st2" d="M44.8,16.3l9.8-3.6v29.6c0,0.6,0,0.7-0.5,1l-8.4,4.5c-0.6,0.3-1.4-0.1-1.4-0.7v-15c0-0.1,0-0.2,0.1-0.2l4-1.7
		c0.1,0,0.1-0.1,0.1-0.2v-2.4c0-0.1,0-0.1-0.1-0.1l-3.8,1.6c-0.2,0.1-0.3,0-0.3-0.2V17C44.4,16.7,44.5,16.4,44.8,16.3"/>
	<rect x="27.2" y="1.5" class="st0" width="195.7" height="46.4"/>
	<path class="st1" d="M65.5,33.8H63V19.6h2.4v1.6c0.4-0.6,0.9-1.1,1.5-1.4c0.5-0.3,1.2-0.5,1.9-0.5V22c-1.1,0.1-2,0.4-2.5,1
		s-0.7,1.5-0.7,2.9v7.9H65.5z"/>
	<rect x="27.2" y="1.5" class="st0" width="195.7" height="46.4"/>
	<rect x="27.2" y="1.5" class="st0" width="195.7" height="46.4"/>
	<path class="st1" d="M73.6,26.7c0,1.4,0.5,2.6,1.4,3.6s2,1.4,3.4,1.4c1.3,0,2.4-0.5,3.3-1.4c0.9-1,1.3-2.1,1.3-3.6
		c0-1.4-0.4-2.6-1.3-3.6c-0.9-0.9-2-1.4-3.3-1.4s-2.4,0.5-3.3,1.4C74,24.1,73.6,25.3,73.6,26.7 M70.9,26.7c0-1,0.2-2,0.5-2.8
		c0.3-0.9,0.8-1.7,1.5-2.4c0.7-0.8,1.5-1.4,2.4-1.8s1.8-0.6,2.8-0.6s2,0.2,2.9,0.6s1.7,0.9,2.4,1.6c0.7,0.7,1.2,1.5,1.6,2.4
		s0.6,1.8,0.6,2.8s-0.2,1.9-0.5,2.8s-0.8,1.7-1.5,2.4c-0.7,0.8-1.5,1.4-2.4,1.8c-0.9,0.4-1.9,0.6-2.9,0.6s-2-0.2-2.9-0.6
		c-0.9-0.4-1.7-0.9-2.4-1.7c-0.7-0.7-1.2-1.5-1.6-2.4C71.1,28.6,70.9,27.7,70.9,26.7"/>
	<rect x="27.2" y="1.5" class="st0" width="195.7" height="46.4"/>
	<path class="st1" d="M90.8,26.7c0,1.4,0.5,2.6,1.4,3.6s2,1.4,3.4,1.4c1.3,0,2.4-0.5,3.3-1.4c0.9-1,1.3-2.1,1.3-3.6
		c0-1.4-0.4-2.6-1.3-3.6c-0.9-0.9-2-1.4-3.3-1.4s-2.4,0.5-3.3,1.4C91.2,24.1,90.8,25.3,90.8,26.7 M88.1,26.7c0-1,0.2-2,0.5-2.8
		c0.3-0.9,0.8-1.7,1.5-2.4c0.7-0.8,1.5-1.4,2.4-1.8s1.8-0.6,2.8-0.6s2,0.2,2.9,0.6s1.7,0.9,2.4,1.6c0.7,0.7,1.2,1.5,1.6,2.4
		s0.6,1.8,0.6,2.8s-0.2,1.9-0.5,2.8s-0.8,1.7-1.5,2.4c-0.7,0.8-1.5,1.4-2.4,1.8c-0.9,0.4-1.9,0.6-2.9,0.6s-2-0.2-2.9-0.6
		c-0.9-0.4-1.7-0.9-2.4-1.7c-0.7-0.7-1.2-1.5-1.6-2.4C88.3,28.6,88.1,27.7,88.1,26.7"/>
	<path class="st1" d="M109.4,33.8h-2.5v-12h-1.7v-2.2h1.6v-0.4c0-1.5,0.4-2.6,1.2-3.3c0.8-0.7,2-1.1,3.6-1.1v2.4h-0.2
		c-0.8,0-1.3,0.2-1.6,0.5c-0.3,0.3-0.5,0.9-0.5,1.7v0.2h2.3v2.2h-2.2C109.4,21.8,109.4,33.8,109.4,33.8z"/>
	<rect x="27.2" y="1.5" class="st0" width="195.7" height="46.4"/>
	<path class="st1" d="M170.7,33.8h-2.5v-12h-1.7v-2.2h1.6v-0.4c0-1.5,0.4-2.6,1.2-3.3s2-1.1,3.6-1.1v2.4h-0.2
		c-0.8,0-1.3,0.2-1.6,0.5s-0.5,0.9-0.5,1.7v0.2h2.3v2.2h-2.2L170.7,33.8L170.7,33.8z"/>
	<rect x="27.2" y="1.5" class="st0" width="195.7" height="46.4"/>
	<rect x="175.9" y="15" class="st1" width="2.5" height="18.8"/>
	<rect x="27.2" y="1.5" class="st0" width="195.7" height="46.4"/>
	<rect x="27.2" y="1.5" class="st0" width="195.7" height="46.4"/>
	<path class="st1" d="M184.5,26.7c0,1.4,0.5,2.6,1.4,3.6s2,1.4,3.4,1.4c1.3,0,2.4-0.5,3.3-1.4c0.9-1,1.3-2.1,1.3-3.6
		c0-1.4-0.4-2.6-1.3-3.6c-0.9-0.9-2-1.4-3.3-1.4s-2.4,0.5-3.3,1.4C184.9,24.1,184.5,25.3,184.5,26.7 M181.8,26.7c0-1,0.2-2,0.5-2.8
		c0.3-0.9,0.8-1.7,1.5-2.4c0.7-0.8,1.5-1.4,2.4-1.8s1.8-0.6,2.8-0.6s2,0.2,2.9,0.6s1.7,0.9,2.4,1.6s1.2,1.5,1.6,2.4
		c0.4,0.9,0.6,1.8,0.6,2.8s-0.2,1.9-0.5,2.8s-0.8,1.7-1.5,2.4c-0.7,0.8-1.5,1.4-2.4,1.8c-0.9,0.4-1.9,0.6-2.9,0.6s-2-0.2-2.9-0.6
		c-0.9-0.4-1.7-0.9-2.4-1.7c-0.7-0.7-1.2-1.5-1.6-2.4C182,28.6,181.8,27.7,181.8,26.7"/>
	<rect x="27.2" y="1.5" class="st0" width="195.7" height="46.4"/>
	<path class="st1" d="M201.7,26.7c0,1.4,0.5,2.6,1.4,3.6s2,1.4,3.4,1.4c1.3,0,2.4-0.5,3.3-1.4c0.9-1,1.3-2.1,1.3-3.6
		c0-1.4-0.4-2.6-1.3-3.6c-0.9-0.9-2-1.4-3.3-1.4s-2.4,0.5-3.3,1.4C202.1,24.1,201.7,25.3,201.7,26.7 M199,26.7c0-1,0.2-2,0.5-2.8
		c0.3-0.9,0.8-1.7,1.5-2.4c0.7-0.8,1.5-1.4,2.4-1.8s1.8-0.6,2.8-0.6s2,0.2,2.9,0.6s1.7,0.9,2.4,1.6s1.2,1.5,1.6,2.4
		c0.4,0.9,0.6,1.8,0.6,2.8s-0.2,1.9-0.5,2.8s-0.8,1.7-1.5,2.4c-0.7,0.8-1.5,1.4-2.4,1.8c-0.9,0.4-1.9,0.6-2.9,0.6s-2-0.2-2.9-0.6
		c-0.9-0.4-1.7-0.9-2.4-1.7c-0.7-0.7-1.2-1.5-1.6-2.4C199.2,28.6,199,27.7,199,26.7"/>
	<path class="st1" d="M219.6,33.8H217V19.6h2.4v1.6c0.4-0.6,0.9-1.1,1.5-1.4c0.5-0.3,1.2-0.5,1.9-0.5V22c-1.1,0.1-2,0.4-2.5,1
		s-0.7,1.5-0.7,2.9L219.6,33.8L219.6,33.8z"/>
	<rect x="27.2" y="1.5" class="st0" width="195.7" height="46.4"/>
	<rect x="27.2" y="1.5" class="st0" width="195.7" height="46.4"/>
	<path class="st2" d="M116.6,26.6c0,1.4,0.5,2.6,1.4,3.6c1,1,2.1,1.5,3.5,1.5c1.3,0,2.4-0.5,3.3-1.5c1-1,1.4-2.1,1.4-3.4
		c0-1.4-0.5-2.6-1.4-3.6c-1-1-2.1-1.5-3.4-1.5s-2.5,0.5-3.4,1.4C117.1,24.1,116.6,25.2,116.6,26.6 M126.1,33.8v-1.7
		c-0.7,0.7-1.4,1.2-2.2,1.5c-0.8,0.3-1.7,0.5-2.6,0.5c-2.1,0-3.9-0.7-5.3-2.1s-2.1-3.2-2.1-5.4c0-1,0.2-2,0.5-2.8
		c0.4-0.9,0.9-1.7,1.5-2.4c0.7-0.7,1.5-1.3,2.3-1.7c0.8-0.4,1.8-0.5,2.9-0.5c1,0,1.9,0.2,2.7,0.5c0.8,0.3,1.6,0.9,2.2,1.6v-1.7h2.6
		v14.2H126.1z"/>
	<path class="st2" d="M135.4,33.8h-2.6V19.6h2.5v1.6c0.5-0.6,1.1-1.1,1.8-1.4c0.6-0.3,1.4-0.4,2.2-0.4c1.9,0,3.3,0.5,4.3,1.6
		s1.5,2.7,1.5,4.7v8.1h-2.6v-7.5c0-1.5-0.3-2.6-0.8-3.4c-0.6-0.7-1.4-1.1-2.6-1.1c-1.3,0-2.2,0.4-2.8,1.3s-0.9,2.3-0.9,4.3
		L135.4,33.8L135.4,33.8z"/>
	<rect x="27.2" y="1.5" class="st0" width="195.7" height="46.4"/>
	<rect x="27.2" y="1.5" class="st0" width="195.7" height="46.4"/>
	<path class="st2" d="M151.1,26.6c0,1.4,0.5,2.6,1.4,3.6c1,1,2.1,1.5,3.5,1.5c1.3,0,2.4-0.5,3.3-1.5c1-1,1.4-2.1,1.4-3.4
		c0-1.4-0.5-2.6-1.4-3.6c-1-1-2.1-1.5-3.4-1.5c-1.3,0-2.5,0.5-3.4,1.4C151.6,24.1,151.1,25.2,151.1,26.6 M160.7,33.8v-1.7
		c-0.7,0.7-1.4,1.2-2.2,1.5s-1.7,0.5-2.6,0.5c-2.1,0-3.9-0.7-5.3-2.1c-1.4-1.4-2.1-3.2-2.1-5.4c0-1,0.2-2,0.5-2.8s0.9-1.7,1.5-2.4
		c0.7-0.7,1.5-1.3,2.3-1.7c0.8-0.4,1.8-0.5,2.9-0.5c1,0,1.9,0.2,2.7,0.5s1.6,0.9,2.3,1.6V15h2.6v18.8H160.7z"/>
	<rect x="27.2" y="1.5" class="st0" width="195.7" height="46.4"/>
	<rect x="27.2" y="1.5" class="st0" width="195.7" height="46.4"/>
	<rect x="27.2" y="1.5" class="st0" width="195.7" height="46.4"/>
	<g>
		<rect x="196.8" y="14.2" class="st2" width="1.5" height="1.5"/>
		<path class="st2" d="M202.6,9.3c-0.4,0-0.8,0.1-1.2,0.2c-0.4,0.2-0.7,0.4-1,0.7s-0.6,0.7-0.7,1.1c-0.2,0.4-0.2,0.9-0.2,1.4
			c0,0.4,0.2,0.9,0.4,1.4c0.3,0.5,0.7,0.9,1.2,1.2s1.1,0.5,1.8,0.4c0.6,0,1.2-0.3,1.8-0.7s0.9-0.9,1.1-1.5H204
			c-0.4,0.5-0.8,0.8-1.3,0.8s-0.9-0.2-1.2-0.5s-0.5-0.7-0.6-1.2c0-0.5,0.1-0.9,0.4-1.3c0.3-0.4,0.7-0.6,1.2-0.6c0.3,0,0.6,0,0.9,0.1
			c0.3,0.1,0.5,0.3,0.7,0.6h1.7c-0.1-0.3-0.3-0.7-0.5-1c-0.3-0.3-0.6-0.6-1-0.9S203.2,9.3,202.6,9.3"/>
		<path class="st2" d="M207.2,10.4c-0.5,0.6-0.8,1.4-0.8,2.1c0,0.9,0.3,1.7,1,2.3c0.6,0.6,1.4,1,2.3,1c0.6,0,1.1-0.1,1.6-0.4
			c0.5-0.3,0.9-0.7,1.2-1.2s0.4-1,0.4-1.6s-0.1-1.1-0.4-1.6c-0.3-0.5-0.7-0.9-1.2-1.2s-1-0.4-1.6-0.4C208.8,9.4,208,9.7,207.2,10.4
			 M208.3,11.3c0.3-0.4,0.8-0.5,1.3-0.5c0.3,0,0.6,0.1,0.9,0.2c0.3,0.2,0.5,0.4,0.6,0.7c0.2,0.3,0.2,0.6,0.2,0.9
			c0,0.5-0.2,0.9-0.5,1.3c-0.3,0.3-0.7,0.5-1.3,0.5c-0.5,0-0.9-0.2-1.2-0.6c-0.3-0.4-0.5-0.8-0.5-1.2
			C207.9,12.1,208,11.7,208.3,11.3"/>
		<path class="st2" d="M213.7,9.6v6.1h1.5v-3.4c0-0.5,0.1-0.8,0.3-1.1c0.2-0.2,0.5-0.4,0.8-0.4s0.6,0.1,0.8,0.4
			c0.2,0.2,0.4,0.6,0.4,1v3.5h1.5v-3.4c0-0.4,0.1-0.8,0.4-1.1c0.3-0.3,0.5-0.4,0.9-0.4c0.2,0,0.4,0,0.6,0.1c0.2,0.1,0.3,0.2,0.4,0.4
			c0.1,0.2,0.1,0.4,0.1,0.7v3.5h1.5v-3.8c0-0.5-0.1-0.9-0.4-1.3c-0.2-0.4-0.5-0.7-0.9-0.8c-0.4-0.2-0.8-0.3-1.2-0.3
			s-0.8,0.1-1.1,0.2c-0.3,0.2-0.6,0.4-0.8,0.7c-0.2-0.3-0.4-0.5-0.8-0.7c-0.3-0.2-0.7-0.2-1-0.2s-0.6,0.1-0.9,0.2
			c-0.3,0.1-0.5,0.3-0.6,0.6V9.6H213.7z"/>
	</g>
	<rect x="27.2" y="1.5" class="st0" width="195.7" height="46.4"/>
	<rect x="27.2" y="1.5" class="st0" width="195.7" height="46.4"/>
	<rect x="27.2" y="1.5" class="st0" width="195.7" height="46.4"/>
	<rect x="27.2" y="1.5" class="st0" width="195.7" height="46.4"/>
	<rect x="27.2" y="1.5" class="st0" width="195.7" height="46.4"/>
	<rect x="27.2" y="1.5" class="st0" width="195.7" height="46.4"/>
	<rect x="27.2" y="1.5" class="st0" width="195.7" height="46.4"/>
	<rect x="27.2" y="1.5" class="st0" width="195.7" height="46.4"/>
	<rect x="27.2" y="1.5" class="st0" width="195.7" height="46.4"/>
	<g>
		<polygon class="st3" points="66.1,43.4 63,43.4 63,36.5 63.7,36.5 63.7,42.8 66.1,42.8 		"/>
		<path class="st3" d="M71.8,41H67c0,0.6,0.2,1,0.6,1.4s0.8,0.5,1.4,0.5c0.4,0,0.8-0.1,1.1-0.3c0.3-0.2,0.6-0.5,0.7-0.9h0.8
			c-0.2,0.6-0.6,1-1,1.3s-0.9,0.5-1.5,0.5c-0.8,0-1.4-0.3-1.9-0.8s-0.8-1.2-0.8-2s0.3-1.5,0.8-2s1.2-0.8,2-0.8s1.4,0.3,1.9,0.8
			C71.5,39.4,71.8,40.1,71.8,41L71.8,41z M71,40.4c-0.1-0.6-0.4-1-0.7-1.3c-0.3-0.3-0.8-0.4-1.3-0.4s-0.9,0.2-1.3,0.5
			s-0.6,0.7-0.6,1.3L71,40.4L71,40.4z"/>
		<polygon class="st3" points="73,43.4 73,38.8 72,38.8 72,38.2 73,38.2 73,36.5 73.7,36.5 73.7,38.2 74.7,38.2 74.7,38.8 
			73.7,38.8 73.7,43.4 		"/>
		<polygon class="st3" points="75.1,38.5 74.4,38.5 75.1,36.5 75.8,36.5 		"/>
		<path class="st3" d="M77.3,41.8H78l0,0c0,0.3,0.1,0.6,0.3,0.8c0.2,0.2,0.4,0.3,0.7,0.3c0.3,0,0.5-0.1,0.7-0.2
			c0.2-0.2,0.3-0.4,0.3-0.6c0-0.3-0.1-0.5-0.2-0.6c-0.1-0.2-0.4-0.3-0.8-0.4c-0.6-0.2-1-0.4-1.1-0.6c-0.2-0.2-0.3-0.5-0.3-0.9
			s0.1-0.8,0.4-1c0.3-0.3,0.7-0.4,1.1-0.4c0.5,0,0.8,0.1,1.1,0.4c0.3,0.3,0.4,0.6,0.4,1.1h-0.7c0-0.2-0.1-0.4-0.2-0.6
			c-0.1-0.1-0.3-0.2-0.6-0.2c-0.2,0-0.4,0.1-0.5,0.2c-0.1,0.1-0.2,0.3-0.2,0.6c0,0.2,0,0.3,0.1,0.4c0.1,0.1,0.2,0.2,0.3,0.3
			c0.1,0.1,0.3,0.2,0.6,0.2c0.2,0.1,0.4,0.1,0.5,0.2c0.3,0.1,0.6,0.3,0.7,0.6c0.2,0.2,0.2,0.5,0.2,0.9c0,0.5-0.2,0.8-0.5,1.1
			s-0.7,0.4-1.2,0.4s-0.9-0.2-1.2-0.5C77.5,42.8,77.3,42.3,77.3,41.8"/>
		<path class="st3" d="M85.1,43.9c0.1,0.3,0.3,0.5,0.6,0.7c0.3,0.2,0.6,0.3,1,0.3c0.6,0,1.1-0.2,1.4-0.6c0.4-0.4,0.5-0.9,0.5-1.6
			v-0.1c-0.3,0.3-0.5,0.6-0.9,0.8c-0.3,0.2-0.7,0.3-1.1,0.3c-0.8,0-1.4-0.3-2-0.8c-0.5-0.5-0.8-1.2-0.8-2s0.3-1.4,0.8-2
			c0.5-0.5,1.2-0.8,1.9-0.8c0.4,0,0.8,0.1,1.1,0.2c0.3,0.2,0.6,0.4,0.9,0.7v-0.9h0.7v4.4c0,0.9-0.2,1.6-0.7,2.2s-1.1,0.8-1.9,0.8
			c-0.6,0-1.1-0.1-1.5-0.4c-0.4-0.3-0.7-0.7-0.8-1.2C84.3,43.9,85.1,43.9,85.1,43.9z M84.6,40.8c0,0.6,0.2,1.1,0.6,1.5
			s0.9,0.6,1.4,0.6s1-0.2,1.4-0.6c0.4-0.4,0.6-0.9,0.6-1.5s-0.2-1.1-0.6-1.5s-0.9-0.6-1.4-0.6s-1,0.2-1.4,0.6
			C84.8,39.7,84.6,40.2,84.6,40.8"/>
		<path class="st3" d="M95.5,41h-4.7c0,0.6,0.2,1,0.6,1.4s0.8,0.5,1.4,0.5c0.4,0,0.8-0.1,1.1-0.3c0.3-0.2,0.6-0.5,0.7-0.9h0.8
			c-0.2,0.6-0.6,1-1,1.3s-0.9,0.5-1.5,0.5c-0.8,0-1.4-0.3-1.9-0.8s-0.8-1.2-0.8-2s0.3-1.5,0.8-2s1.2-0.8,2-0.8s1.4,0.3,1.9,0.8
			C95.2,39.4,95.5,40.1,95.5,41L95.5,41z M94.7,40.4c-0.1-0.6-0.4-1-0.7-1.3c-0.3-0.3-0.8-0.4-1.3-0.4s-0.9,0.2-1.3,0.5
			s-0.6,0.7-0.6,1.3L94.7,40.4L94.7,40.4z"/>
		<polygon class="st3" points="96.7,43.4 96.7,38.8 95.7,38.8 95.7,38.2 96.7,38.2 96.7,36.5 97.4,36.5 97.4,38.2 98.4,38.2 
			98.4,38.8 97.4,38.8 97.4,43.4 		"/>
		<polygon class="st3" points="101,38.2 101.8,38.2 103.4,42.4 105.1,38.2 105.9,38.2 103,45.1 102.3,45.1 103,43.4 		"/>
		<path class="st3" d="M106.6,40.8c0,0.6,0.2,1.1,0.6,1.5s0.9,0.6,1.4,0.6c0.6,0,1-0.2,1.4-0.6c0.4-0.4,0.6-0.9,0.6-1.5
			s-0.2-1.1-0.6-1.5s-0.9-0.6-1.5-0.6c-0.5,0-1,0.2-1.4,0.6C106.8,39.7,106.6,40.2,106.6,40.8 M105.9,40.8c0-0.8,0.3-1.4,0.8-2
			c0.5-0.5,1.2-0.8,1.9-0.8c0.8,0,1.4,0.3,1.9,0.8s0.8,1.2,0.8,1.9c0,0.8-0.3,1.5-0.8,2c-0.5,0.6-1.2,0.8-1.9,0.8
			c-0.8,0-1.4-0.3-1.9-0.8C106.2,42.2,105.9,41.6,105.9,40.8"/>
		<path class="st3" d="M112.1,38.2h0.7V41c0,0.7,0.1,1.2,0.3,1.5c0.2,0.3,0.6,0.4,1.1,0.4c0.3,0,0.6-0.1,0.8-0.2
			c0.2-0.1,0.4-0.3,0.6-0.5c0.1-0.1,0.1-0.3,0.2-0.5c0-0.2,0.1-0.5,0.1-1v-2.6h0.7v5.3h-0.7v-0.6c-0.2,0.2-0.4,0.4-0.7,0.5
			c-0.3,0.1-0.6,0.2-0.9,0.2c-0.8,0-1.3-0.2-1.6-0.6c-0.3-0.4-0.5-1.1-0.5-2L112.1,38.2L112.1,38.2z"/>
		<path class="st3" d="M120.3,36.5h0.7v2.3c0.2-0.2,0.4-0.4,0.7-0.5c0.3-0.1,0.6-0.2,0.9-0.2c0.7,0,1.3,0.2,1.6,0.6
			c0.3,0.4,0.5,1.1,0.5,2.1v2.7H124v-2.7c0-0.8-0.1-1.3-0.3-1.6c-0.2-0.3-0.6-0.4-1.2-0.4c-0.3,0-0.6,0.1-0.8,0.2
			c-0.2,0.1-0.4,0.3-0.5,0.5c-0.1,0.1-0.1,0.3-0.2,0.5c0,0.2-0.1,0.5-0.1,1v2.6h-0.7L120.3,36.5L120.3,36.5z"/>
		<path class="st3" d="M126.2,40.8c0,0.6,0.2,1.1,0.6,1.5s0.9,0.6,1.4,0.6c0.6,0,1-0.2,1.4-0.6c0.4-0.4,0.6-0.9,0.6-1.5
			s-0.2-1.1-0.6-1.5c-0.4-0.4-0.9-0.6-1.5-0.6c-0.5,0-1,0.2-1.4,0.6C126.4,39.7,126.2,40.2,126.2,40.8 M125.5,40.8
			c0-0.8,0.3-1.4,0.8-2c0.5-0.5,1.2-0.8,1.9-0.8c0.8,0,1.4,0.3,1.9,0.8s0.8,1.2,0.8,1.9c0,0.8-0.3,1.5-0.8,2
			c-0.5,0.6-1.2,0.8-1.9,0.8c-0.8,0-1.4-0.3-1.9-0.8C125.8,42.2,125.5,41.6,125.5,40.8"/>
		<path class="st3" d="M135.9,39c0.2-0.3,0.5-0.5,0.8-0.7s0.7-0.2,1.1-0.2c0.7,0,1.2,0.2,1.6,0.6c0.3,0.4,0.5,1.1,0.5,2.1v2.7h-0.6
			v-2.8c0-0.7-0.1-1.2-0.3-1.5s-0.6-0.4-1.1-0.4c-0.3,0-0.6,0.1-0.8,0.2c-0.2,0.1-0.4,0.3-0.5,0.5c-0.1,0.1-0.1,0.3-0.2,0.5
			c0,0.2-0.1,0.5-0.1,1v2.6h-0.6v-2.9c0-0.6-0.1-1.1-0.4-1.3c-0.2-0.3-0.6-0.4-1.1-0.4c-0.3,0-0.6,0.1-0.8,0.2
			c-0.2,0.1-0.4,0.3-0.5,0.5c-0.1,0.1-0.1,0.3-0.2,0.5c0,0.2-0.1,0.5-0.1,1v2.6h-0.7v-5.3h0.7v0.6c0.2-0.2,0.4-0.4,0.7-0.5
			s0.6-0.2,0.9-0.2c0.4,0,0.8,0.1,1.1,0.3C135.4,38.5,135.7,38.7,135.9,39"/>
		<path class="st3" d="M146,41h-4.7c0,0.6,0.2,1,0.6,1.4c0.4,0.4,0.8,0.5,1.4,0.5c0.4,0,0.8-0.1,1.1-0.3s0.6-0.5,0.7-0.9h0.8
			c-0.2,0.6-0.6,1-1,1.3s-0.9,0.5-1.5,0.5c-0.8,0-1.4-0.3-1.9-0.8s-0.8-1.2-0.8-2s0.3-1.5,0.8-2s1.2-0.8,2-0.8s1.4,0.3,1.9,0.8
			C145.8,39.4,146,40.1,146,41L146,41z M145.3,40.4c-0.1-0.6-0.4-1-0.7-1.3s-0.8-0.4-1.3-0.4s-0.9,0.2-1.3,0.5
			c-0.4,0.3-0.6,0.7-0.6,1.3L145.3,40.4L145.3,40.4z"/>
	</g>
</g>
</svg>
